<?xml version="1.0" encoding="UTF-8"?>
<svg version="1.1" xmlns="http://www.w3.org/2000/svg" width="1136" height="1136">
<path d="M0 0 C1.08738932 -0.00301597 2.17477863 -0.00603194 3.29511914 -0.0091393 C4.50189272 -0.00736983 5.7086663 -0.00560036 6.95200878 -0.00377727 C8.22982819 -0.0058299 9.50764759 -0.00788253 10.8241888 -0.00999737 C14.39864275 -0.01558876 17.97307285 -0.01488711 21.54752978 -0.01321978 C25.4258156 -0.01249143 29.30409454 -0.01750512 33.18237746 -0.0217948 C40.88677301 -0.02939209 48.59116164 -0.03156873 56.29556055 -0.03212385 C65.51855675 -0.03303578 74.7415465 -0.03969816 83.96453993 -0.04647068 C106.2580361 -0.06254982 128.5515316 -0.06843585 150.84503252 -0.07321942 C161.38441048 -0.07555316 171.92378788 -0.07915554 182.46316541 -0.0829148 C218.51773192 -0.09575116 254.57229813 -0.10647095 290.62686688 -0.1099174 C292.89119938 -0.11013904 295.15553189 -0.11036082 297.41986439 -0.11058275 C299.68976146 -0.1108034 301.95965853 -0.11102388 304.22955561 -0.1112442 C308.78360099 -0.11168676 313.33764637 -0.11213388 317.89169174 -0.11258388 C319.02083477 -0.11269327 320.1499778 -0.11280266 321.31333728 -0.11291536 C357.94637889 -0.11654801 394.57940073 -0.13247546 431.21243477 -0.15577424 C469.91419826 -0.18034389 508.61595044 -0.19408888 547.31772196 -0.19528532 C551.56221766 -0.19545678 555.80671334 -0.19567222 560.05120903 -0.19591975 C561.09637553 -0.19597552 562.14154202 -0.19603129 563.21838023 -0.19608875 C580.07184217 -0.19724161 596.92528391 -0.20828344 613.77873903 -0.22280681 C630.70264834 -0.23713927 647.6265316 -0.24042723 664.55044531 -0.23236683 C674.616764 -0.22789537 684.68299892 -0.23183143 694.74930668 -0.24760534 C701.462989 -0.25730559 708.17661219 -0.25622489 714.89029389 -0.24616911 C718.72239454 -0.24074103 722.55433355 -0.24018147 726.38642126 -0.25267783 C730.50349819 -0.26599237 734.62019145 -0.25639073 738.73727185 -0.2442863 C739.94170426 -0.25188149 741.14613668 -0.25947669 742.38706705 -0.26730204 C744.0219063 -0.25680488 744.0219063 -0.25680488 745.68977261 -0.24609566 C747.1034557 -0.24646196 747.1034557 -0.24646196 748.54569804 -0.24683566 C750.90756088 0.1276505 750.90756088 0.1276505 752.72187761 1.44223888 C754.70027636 4.25447071 754.07612688 7.35510609 753.83334213 10.635463 C753.79017365 11.38434285 753.74700516 12.1332227 753.70252854 12.90479589 C753.55711365 15.35530243 753.38892625 17.80365743 753.22006088 20.2526505 C753.11409775 21.95269343 753.00928715 23.65280857 752.90560776 25.3529923 C752.27559202 35.47146538 751.53464901 45.58210646 750.67375046 55.68360448 C750.00530284 63.5783195 749.48322769 71.47739263 749.00131088 79.385463 C748.91579097 80.77308003 748.83013413 82.16068863 748.74435288 83.54828954 C748.56078544 86.51930273 748.37779079 89.49035043 748.19515854 92.46142125 C747.75021191 99.69105498 747.29762505 106.92021301 746.84585434 114.14942288 C746.63450931 117.53187011 746.4234055 120.91433236 746.21230942 124.29679513 C746.10534913 126.01063458 745.9983748 127.72447316 745.89138657 129.43831086 C745.62235584 133.74791409 745.35345352 138.05752526 745.08480698 142.36715245 C743.50174962 167.76018793 741.91734929 193.15308531 740.20883042 218.53805089 C738.59889301 242.47026267 737.07406668 266.40577782 735.6313768 290.34862828 C733.07994085 332.66068443 730.4186196 374.96571813 727.72325271 417.26880515 C727.38585113 422.56520968 727.0494081 427.86167447 726.71340805 433.15816808 C726.16335716 441.82653587 725.61094316 450.49475086 725.05599838 459.16280675 C724.98878688 460.21304863 724.98878688 460.21304863 724.92021757 461.28450751 C723.53515693 482.91289639 722.04686916 504.53250632 720.50277382 526.15019727 C719.23570006 543.93373235 718.16171093 561.7167027 717.25479275 579.52174401 C716.53818067 593.44897827 715.65043227 607.36722067 714.78524643 621.28585362 C714.57402849 624.68737652 714.3658102 628.08906253 714.16024643 631.49093175 C713.09237605 649.14752627 711.94503891 666.79141116 710.39193588 684.41280675 C710.33437685 685.08752774 710.27681782 685.76224874 710.21751457 686.45741582 C707.92925783 713.02068297 698.6205559 742.78507998 677.90756088 761.1276505 C677.24756088 761.1276505 676.58756088 761.1276505 675.90756088 761.1276505 C675.57756088 762.1176505 675.24756088 763.1076505 674.90756088 764.1276505 C663.06922148 775.85485111 647.33701182 784.1773946 631.72006088 789.5651505 C631.0446727 789.80032384 630.36928452 790.03549718 629.67343003 790.27779698 C616.56870605 794.46888445 603.05953254 794.41857299 589.46414047 794.38834691 C587.52210371 794.39137237 585.58006814 794.39526383 583.63803464 794.39993948 C578.33425457 794.41017735 573.03054241 794.40804843 567.72675687 794.40375888 C561.99380975 794.40128397 556.26087866 794.41031532 550.52793747 794.41779637 C539.30889726 794.43052433 528.08988101 794.43233943 516.8708348 794.42999611 C507.74803638 794.4282106 498.62524522 794.42996758 489.50244766 794.43422055 C487.55229576 794.43511334 487.55229576 794.43511334 485.56274684 794.43602416 C482.92128448 794.43723595 480.27982212 794.43845009 477.63835976 794.43966653 C459.91157857 794.44744958 442.1848005 794.45137583 424.45801789 794.44734979 C423.76556886 794.44719341 423.07311983 794.44703703 422.3596875 794.44687592 C418.85052768 794.4460702 415.34136787 794.44522443 411.83220807 794.44436262 C411.13534779 794.44419153 410.43848752 794.44402044 409.72051027 794.44384417 C408.31129127 794.44349751 406.90207226 794.44314898 405.49285326 794.44279858 C383.57166567 794.43744292 361.65051832 794.44537004 339.72933823 794.46383214 C315.06831695 794.4845777 290.40732155 794.49523888 265.74629098 794.49125665 C252.70086887 794.48934682 239.6554834 794.49181097 226.6100679 794.50597119 C215.50383556 794.51790494 204.39766244 794.51926754 193.29142925 794.50718103 C187.63046865 794.50130627 181.96961625 794.500154 176.30866295 794.51218343 C171.11592393 794.52308921 165.92338285 794.51988337 160.7306529 794.50592174 C158.86266127 794.50328768 156.99465389 794.50560023 155.12667778 794.51365761 C125.16568845 794.63381409 99.42449016 787.02645167 75.90756088 768.1276505 C75.0374437 767.45089269 74.16732651 766.77413487 73.27084213 766.07686925 C62.69470145 757.35373834 53.86871023 744.37217349 47.90756088 732.1276505 C47.46799057 731.24593175 47.02842026 730.364213 46.57552963 729.4557755 C39.42501245 714.506658 36.78684149 699.19823097 35.49740463 682.83468175 C35.43572539 682.07436965 35.37404614 681.31405755 35.31049782 680.53070569 C33.47310222 657.84935253 32.1100866 635.13271641 30.69524628 612.42201161 C30.31341211 606.30606066 29.92732043 600.19037848 29.54159409 594.07467198 C28.93477241 584.44694361 28.32995206 574.81909206 27.72689682 565.19112706 C26.77218413 549.95175292 25.80560754 534.71314366 24.83575302 519.47472692 C24.60664732 515.87233243 24.37817719 512.26989835 24.14999253 508.66744542 C23.80649829 503.2448405 23.4615609 497.82232896 23.11581284 492.3998673 C22.97535388 490.19286686 22.83539101 487.9858348 22.69589096 485.77877355 C21.62528697 468.8469256 20.48884998 451.92027301 19.32162338 434.994838 C13.76159489 354.32151839 13.76159489 354.32151839 11.78256088 319.1276505 C11.70640943 317.77514195 11.6302579 316.42263341 11.5541063 315.07012486 C11.51647108 314.40135225 11.47883587 313.73257964 11.4400602 313.04354119 C11.24972787 309.66141075 11.05922676 306.27928988 10.86849838 302.89718175 C10.83091038 302.22987475 10.79332237 301.56256776 10.75459534 300.87503934 C9.7185484 282.51687805 8.56837099 264.16578403 7.40756088 245.8151505 C7.32789078 244.5540886 7.32789078 244.5540886 7.24661118 243.26755071 C5.78854383 220.20315377 4.2236316 197.14957687 2.53304917 174.1009171 C1.18087602 155.61697797 0.06531652 137.12735869 -0.94400162 118.62179112 C-2.0776603 97.90680807 -3.39503109 77.20484035 -4.73501724 56.50240636 C-6.15109813 34.58341588 -6.15109813 34.58341588 -6.70572037 24.33468175 C-6.74573166 23.61368291 -6.78574295 22.89268407 -6.8269667 22.14983678 C-7.19116371 15.14100046 -7.18682183 8.1434326 -7.09243912 1.1276505 C-4.56476348 -0.13618732 -2.83066227 0.00154763 0 0 Z " fill="#D4DAE7" transform="translate(196.09243911504745,297.8723495006561)"/>
<path d="M0 0 C2.40942704 -0.00570984 4.81885137 -0.01267647 7.22827148 -0.02079773 C13.06795361 -0.03682499 18.90751195 -0.0388433 24.74721137 -0.03358483 C29.49934914 -0.02952567 34.25145526 -0.03100728 39.00359154 -0.03633308 C40.02229147 -0.03745572 40.02229147 -0.03745572 41.06157121 -0.03860103 C42.44171857 -0.04013268 43.82186593 -0.04167103 45.20201328 -0.043216 C58.11445434 -0.05691086 71.02683463 -0.05152488 83.93927427 -0.04003078 C95.71941023 -0.03010411 107.49938898 -0.04303462 119.2795007 -0.06696498 C131.41181895 -0.09142273 143.54406418 -0.10094736 155.67640656 -0.09431225 C162.47315842 -0.09083448 169.26978955 -0.09295587 176.0665226 -0.11056328 C182.46151261 -0.12610169 188.85620404 -0.12200036 195.25118256 -0.10325813 C197.58751814 -0.09959117 199.92387618 -0.10262492 202.26019096 -0.11314392 C218.0163325 -0.17862474 233.07554002 0.46548726 247.35424805 7.96655273 C248.00844727 8.30388428 248.66264648 8.64121582 249.33666992 8.98876953 C265.26545178 17.63887509 277.07492846 33.43924367 282.4296875 50.64086914 C283.28182586 54.13145981 283.74127019 57.64497354 284.1862793 61.20483398 C284.27574829 61.89855103 284.36521729 62.59226807 284.45739746 63.30700684 C284.67603294 65.00563633 284.89055764 66.70479406 285.10424805 68.40405273 C285.75868896 68.40313094 286.41312988 68.40220915 287.08740234 68.40125942 C303.32177019 68.37876945 319.55613233 68.36243639 335.79051208 68.35224056 C343.6426552 68.34717372 351.49478754 68.34028772 359.34692383 68.32861328 C389.63558757 68.28476585 419.92691371 68.25121753 450.21334839 68.67178535 C452.60515682 68.70376042 454.99703058 68.73122761 457.38894653 68.75376701 C471.87738454 68.89836022 484.93949277 69.18983798 498.10424805 75.90405273 C498.77576904 76.2437207 499.44729004 76.58338867 500.13916016 76.93334961 C507.18088248 80.68804247 512.6034842 85.69204604 518.10424805 91.40405273 C518.76811523 92.04858398 519.43198242 92.69311523 520.1159668 93.35717773 C534.34563169 108.06649426 537.25071247 127.43579196 537.2722168 147.02905273 C537.2755452 148.09776611 537.2788736 149.16647949 537.28230286 150.26757812 C537.28733101 152.50626193 537.28971247 154.74495313 537.28955078 156.98364258 C537.29175963 160.42207826 537.31001899 163.86020397 537.32885742 167.29858398 C537.33178768 169.47957247 537.33377493 171.66056248 537.3347168 173.84155273 C537.34190231 174.8716748 537.34908783 175.90179688 537.35649109 176.96313477 C537.35341446 177.91172363 537.35033783 178.8603125 537.34716797 179.83764648 C537.34859299 180.67352295 537.35001801 181.50939941 537.35148621 182.37060547 C537.10424805 184.40405273 537.10424805 184.40405273 535.10424805 186.40405273 C532.56358274 186.65339506 532.56358274 186.65339506 529.27097356 186.65244973 C528.01797259 186.65694431 526.76497163 186.6614389 525.47400093 186.66606969 C524.0678075 186.66093738 522.66161473 186.65562351 521.25542259 186.65014839 C519.76766274 186.65162629 518.27990355 186.65398198 516.79214633 186.65714139 C512.67061798 186.6633141 508.54918736 186.65690069 504.42766625 186.64858512 C499.95641767 186.64174623 495.48517952 186.64645265 491.01392901 186.6497401 C483.16655918 186.65389815 475.31921959 186.65058209 467.47185326 186.64246368 C455.80299411 186.63042521 444.13415416 186.62978913 432.46528993 186.63154766 C412.83923388 186.63417952 393.21319127 186.62747728 373.58713913 186.61551285 C354.14608061 186.60369148 334.70502769 186.59598352 315.26396561 186.59380722 C313.45290976 186.593601 313.45290976 186.593601 311.60526692 186.59339062 C305.47400572 186.59271398 299.34274452 186.5921112 293.21148331 186.59153686 C249.74832556 186.58733254 206.28517512 186.57384805 162.82202148 186.55493164 C120.58992553 186.53657219 78.35783157 186.52240036 36.12573242 186.51391602 C34.82467277 186.51365296 33.52361313 186.51338991 32.18312743 186.51311889 C19.11772535 186.51048192 6.05232326 186.50793028 -7.01307885 186.50544117 C-33.63041327 186.50036831 -60.24774756 186.49472581 -86.86508179 186.48873901 C-88.7009412 186.48832714 -88.7009412 186.48832714 -90.57388867 186.48790695 C-172.34784614 186.46949588 -254.12179955 186.43780435 -335.89575195 186.40405273 C-338.1504881 178.76193817 -338.1504881 178.76193817 -338.07861328 174.53295898 C-338.06812454 173.64092773 -338.0576358 172.74889648 -338.04682922 171.82983398 C-338.01265144 170.41250977 -338.01265144 170.41250977 -337.9777832 168.96655273 C-337.95987228 167.96881836 -337.94196136 166.97108398 -337.92350769 165.94311523 C-337.88243819 163.83509354 -337.83588379 161.72717243 -337.78417969 159.61938477 C-337.70915288 156.44220434 -337.65967889 153.26534796 -337.61254883 150.08764648 C-337.12573628 124.75351904 -332.18899223 105.04111113 -313.66870117 86.69116211 C-304.71991285 78.21834355 -294.79529132 73.36638532 -282.89575195 70.40405273 C-281.94204696 70.14148383 -281.94204696 70.14148383 -280.9690752 69.8736105 C-277.36041636 69.05633621 -273.66023623 69.16084339 -269.97460938 69.08984375 C-269.05326769 69.06918539 -268.131926 69.04852703 -267.18266487 69.02724266 C-264.05977653 68.96034171 -260.93681095 68.9021204 -257.8137207 68.84545898 C-256.16392243 68.81387286 -256.16392243 68.81387286 -254.48079491 68.78164864 C-223.16765608 68.19668411 -191.84994631 68.287861 -160.5327481 68.33202517 C-152.25613719 68.34348786 -143.97952512 68.34877142 -135.70290816 68.35372913 C-118.76718009 68.3640023 -101.83146814 68.38142686 -84.89575195 68.40405273 C-84.61115112 66.68400024 -84.61115112 66.68400024 -84.32080078 64.92919922 C-84.06091542 63.39863285 -83.80072673 61.86811797 -83.5402832 60.33764648 C-83.41657349 59.58495483 -83.29286377 58.83226318 -83.16540527 58.0567627 C-80.10700893 40.25063471 -70.76103886 24.43803922 -56.11474609 13.68603516 C-38.15211806 1.13999326 -21.20957752 -0.04547685 0 0 Z " fill="#D5DAE9" transform="translate(468.895751953125,45.595947265625)"/>
<path d="M0 0 C1.08738932 -0.00301597 2.17477863 -0.00603194 3.29511914 -0.0091393 C4.50189272 -0.00736983 5.7086663 -0.00560036 6.95200878 -0.00377727 C8.22982819 -0.0058299 9.50764759 -0.00788253 10.8241888 -0.00999737 C14.39864275 -0.01558876 17.97307285 -0.01488711 21.54752978 -0.01321978 C25.4258156 -0.01249143 29.30409454 -0.01750512 33.18237746 -0.0217948 C40.88677301 -0.02939209 48.59116164 -0.03156873 56.29556055 -0.03212385 C65.51855675 -0.03303578 74.7415465 -0.03969816 83.96453993 -0.04647068 C106.2580361 -0.06254982 128.5515316 -0.06843585 150.84503252 -0.07321942 C161.38441048 -0.07555316 171.92378788 -0.07915554 182.46316541 -0.0829148 C218.51773192 -0.09575116 254.57229813 -0.10647095 290.62686688 -0.1099174 C292.89119938 -0.11013904 295.15553189 -0.11036082 297.41986439 -0.11058275 C299.68976146 -0.1108034 301.95965853 -0.11102388 304.22955561 -0.1112442 C308.78360099 -0.11168676 313.33764637 -0.11213388 317.89169174 -0.11258388 C319.02083477 -0.11269327 320.1499778 -0.11280266 321.31333728 -0.11291536 C357.94637889 -0.11654801 394.57940073 -0.13247546 431.21243477 -0.15577424 C469.91419826 -0.18034389 508.61595044 -0.19408888 547.31772196 -0.19528532 C551.56221766 -0.19545678 555.80671334 -0.19567222 560.05120903 -0.19591975 C561.09637553 -0.19597552 562.14154202 -0.19603129 563.21838023 -0.19608875 C580.07184217 -0.19724161 596.92528391 -0.20828344 613.77873903 -0.22280681 C630.70264834 -0.23713927 647.6265316 -0.24042723 664.55044531 -0.23236683 C674.616764 -0.22789537 684.68299892 -0.23183143 694.74930668 -0.24760534 C701.462989 -0.25730559 708.17661219 -0.25622489 714.89029389 -0.24616911 C718.72239454 -0.24074103 722.55433355 -0.24018147 726.38642126 -0.25267783 C730.50349819 -0.26599237 734.62019145 -0.25639073 738.73727185 -0.2442863 C739.94170426 -0.25188149 741.14613668 -0.25947669 742.38706705 -0.26730204 C744.0219063 -0.25680488 744.0219063 -0.25680488 745.68977261 -0.24609566 C747.1034557 -0.24646196 747.1034557 -0.24646196 748.54569804 -0.24683566 C750.90756088 0.1276505 750.90756088 0.1276505 752.72386125 1.41744335 C754.81139383 4.43350675 754.02455155 8.00933531 753.76302963 11.51436925 C753.7143927 12.33137807 753.66575577 13.14838689 753.61564499 13.99015355 C753.456889 16.59965553 753.27625745 19.20712001 753.09506088 21.8151505 C752.98359137 23.58394033 752.87354774 25.35282064 752.76498276 27.12179112 C752.49571023 31.45830084 752.20681068 35.79311044 751.90756088 40.1276505 C751.24756088 40.1276505 750.58756088 40.1276505 749.90756088 40.1276505 C749.57756088 42.4376505 749.24756088 44.7476505 748.90756088 47.1276505 C748.57756088 47.1276505 748.24756088 47.1276505 747.90756088 47.1276505 C747.59913945 32.59757386 748.69178296 18.71698558 749.90756088 4.1276505 C501.41756088 4.1276505 252.92756088 4.1276505 -3.09243912 4.1276505 C-2.05079292 25.16973292 -2.05079292 25.16973292 -0.09243912 46.1276505 C0.0556947 48.12000257 0.18120242 50.1142072 0.28060776 52.10958409 C0.33736679 53.21788579 0.39412583 54.32618749 0.45260483 55.46807408 C0.50992783 56.64221868 0.56725083 57.81636327 0.62631088 59.026088 C0.6891124 60.25622624 0.75191391 61.48636449 0.8166185 62.75377965 C1.01638212 66.66993494 1.21236815 70.5862649 1.40756088 74.5026505 C1.60292613 78.41188499 1.79920705 82.32106184 1.99850327 86.23009801 C2.12217903 88.65639192 2.24364107 91.08280004 2.36251694 93.50933385 C2.65737882 99.29968663 3.06678936 105.04696745 3.68115097 110.8118546 C4.04641611 114.54790791 4.21046354 118.28832898 4.37240463 122.03780675 C4.45099187 123.70513337 4.52977428 125.3724508 4.60873276 127.03975987 C4.72730101 129.60370698 4.84407117 132.16770198 4.95712143 134.73189855 C5.38439351 144.32373958 6.00356884 153.81500934 7.20733505 163.34287572 C7.89033172 168.77334495 8.2826378 174.16038198 8.47006088 179.6276505 C8.53106611 181.24234193 8.59485067 182.85693084 8.66146713 184.4714005 C8.68539536 185.15395909 8.70932358 185.83651769 8.7339769 186.53975987 C8.88317222 188.7640501 9.12416881 190.94081815 9.39535385 193.1523087 C10.04902718 198.88778161 10.18185538 204.6227347 10.34896713 210.38936925 C10.83144246 224.93428238 11.79924284 239.42658384 12.84506088 253.9401505 C13.02704 256.51490353 13.20851312 259.08969238 13.38949448 261.66451573 C13.73960661 266.64128736 14.09147381 271.61792839 14.44515854 276.59444737 C14.99129396 284.29190961 15.51996238 291.99038145 16.03256088 299.6901505 C16.10652085 300.79471593 16.18048081 301.89928136 16.25668198 303.03731847 C16.67448705 309.35509451 17.06240483 315.67426425 17.43490463 321.994838 C17.47973984 322.75153279 17.52457505 323.50822759 17.57076889 324.28785253 C17.78826206 327.96217555 18.00272246 331.63661892 18.21078354 335.31148839 C18.28732163 336.62109532 18.36385971 337.93070226 18.44271713 339.27999425 C18.54145127 341.0123734 18.54145127 341.0123734 18.64218003 342.77975011 C18.82167034 345.04410219 19.08004577 347.3033484 19.40975815 349.5507462 C19.95052892 353.43639237 20.17939883 357.29090953 20.33724838 361.2057755 C20.40953115 362.83435908 20.48188152 364.46293966 20.5542894 366.09151769 C20.59127945 366.95112096 20.6282695 367.81072423 20.66638047 368.69637609 C21.39993321 385.62570214 22.28523956 402.54558453 23.27114731 419.46200109 C23.40335413 421.73219373 23.53434309 424.00245763 23.66409165 426.2727921 C23.84723107 429.46941814 24.03486135 432.66574751 24.22396713 435.8620255 C24.27808258 436.81339391 24.33219803 437.76476232 24.38795334 438.74496007 C24.44155518 439.63147252 24.49515702 440.51798497 24.55038315 441.43136144 C24.59542481 442.19736669 24.64046646 442.96337193 24.68687302 443.75258946 C24.88725772 446.22818117 24.88725772 446.22818117 25.40083176 449.05440831 C25.89432639 452.04738514 26.17162361 454.97015259 26.37240463 457.99581456 C26.44918442 459.13270726 26.52596421 460.26959996 26.60507065 461.44094396 C26.68426743 462.66271337 26.76346421 463.88448277 26.84506088 465.1432755 C26.97255722 467.06898381 26.97255722 467.06898381 27.10262924 469.03359532 C27.28276628 471.76029571 27.46067495 474.48713025 27.63705307 477.21407628 C27.85787061 480.62497908 28.08446866 484.03546708 28.3127504 487.44587731 C29.25951273 501.63244078 30.05955396 515.81159126 30.54952866 530.02241063 C30.8768898 539.17357351 31.48658863 548.28791485 32.20815903 557.41552281 C32.55387928 561.79268824 32.88378699 566.17103555 33.21224838 570.5495255 C33.27552323 571.39144948 33.33879807 572.23337346 33.40399033 573.10081029 C33.94499224 580.40904597 34.35511512 587.71908997 34.61654526 595.0429337 C34.76561166 599.04727524 35.14914486 602.94744527 35.68002182 606.91695714 C36.04776236 610.48980109 36.07379543 614.06388202 36.14730698 617.65304112 C36.47143214 632.8542935 37.55834511 647.97523645 38.78256088 663.1276505 C38.86374161 664.15929326 38.94492234 665.19093602 39.02856308 666.25384068 C41.86375678 702.0318602 46.79100403 732.448454 72.90756088 759.1276505 C74.34228745 760.27427159 74.34228745 760.27427159 75.80599838 761.44405675 C76.49951401 761.99964269 77.19302963 762.55522862 77.90756088 763.1276505 C77.90756088 763.7876505 77.90756088 764.4476505 77.90756088 765.1276505 C79.55756088 765.7876505 81.20756088 766.4476505 82.90756088 767.1276505 C82.90756088 767.7876505 82.90756088 768.4476505 82.90756088 769.1276505 C83.60752182 769.37901769 84.30748276 769.63038487 85.02865463 769.88936925 C88.26129235 771.27979823 91.01748737 773.02664871 93.97006088 774.9401505 C103.32741781 780.78454699 112.61708406 784.23701109 123.28256088 786.8776505 C124.53843003 787.19415563 124.53843003 787.19415563 125.81967026 787.5170548 C139.17893409 790.63549598 152.97666731 790.2731893 166.61189133 790.25463414 C168.47356899 790.25578838 170.33524642 790.25737793 172.19692338 790.25936139 C177.27844929 790.26351312 182.35995629 790.26148289 187.44148225 790.25837517 C192.93509989 790.25610427 198.42871438 790.25960909 203.92233139 790.26235509 C214.67112352 790.26679379 225.41990865 790.26584474 236.16870105 790.26294245 C244.90775112 790.26068084 253.64679925 790.26037918 262.38584954 790.26146626 C263.63130975 790.2616195 264.87676997 790.26177273 266.1599714 790.26193061 C268.69039096 790.26225034 271.22081051 790.26257456 273.75123007 790.2629032 C296.78506591 790.26567129 319.81889866 790.26280424 342.85273375 790.2575606 C363.8541658 790.25281598 384.85559178 790.25323954 405.85702378 790.25802159 C429.48193494 790.2633831 453.10684353 790.26547724 476.73175538 790.26240933 C479.25298907 790.26209079 481.77422277 790.26177642 484.29545647 790.26146626 C485.53582969 790.26131199 486.77620291 790.26115771 488.0541632 790.26099876 C496.77816379 790.26013679 505.50216223 790.26158961 514.22616249 790.26394582 C524.86437801 790.26675596 535.50258615 790.26597996 546.14080083 790.26066507 C551.56439917 790.25804437 556.98798524 790.25699527 562.41158348 790.26031423 C567.38390474 790.26331091 572.35620242 790.2616286 577.32852156 790.25633667 C579.11974415 790.25522681 580.91096876 790.2557716 582.70219003 790.25821246 C598.68718218 790.27831064 613.51248861 789.8528707 628.90756088 785.1276505 C630.43316635 784.69645909 630.43316635 784.69645909 631.98959213 784.25655675 C638.79943503 782.20539925 644.83001973 779.23431266 651.00912338 775.76925206 C655.72751861 773.1276505 655.72751861 773.1276505 657.90756088 773.1276505 C657.90756088 772.4676505 657.90756088 771.8076505 657.90756088 771.1276505 C659.48822462 769.90158433 661.12519606 768.74786385 662.78256088 767.6276505 C670.85690802 761.90182647 682.66369189 752.85925748 685.90756088 743.1276505 C686.56756088 743.1276505 687.22756088 743.1276505 687.90756088 743.1276505 C688.15634995 742.4470255 688.40513901 741.7664005 688.66146713 741.0651505 C689.85350634 738.25507689 691.2633389 735.66252406 692.77596909 733.01461339 C696.44857388 726.53241141 698.9401501 720.64091954 700.23959213 713.22530675 C700.90756088 710.1276505 700.90756088 710.1276505 702.41146713 706.510463 C704.50118005 701.14211766 704.67729932 695.64175038 705.03256088 689.9401505 C705.17849902 687.82148727 705.32684964 685.70298853 705.47787338 683.58468175 C705.53733139 682.65631505 705.5967894 681.72794835 705.65804917 680.77144933 C705.90756088 678.1276505 705.90756088 678.1276505 706.40083176 675.79218602 C706.90969707 673.11641779 707.12895826 670.5702907 707.26473862 667.85128331 C707.31834549 666.81583882 707.37195236 665.78039433 707.42718369 664.71357274 C707.4812941 663.59724965 707.53540451 662.48092656 707.59115463 661.3307755 C707.6509047 660.16131886 707.71065476 658.99186223 707.77221543 657.78696752 C707.89992615 655.28241151 708.02605525 652.77777446 708.15075547 650.27306676 C708.47540469 643.76453052 708.81342205 637.25668567 709.14974838 630.74874425 C709.21547547 629.47117757 709.28120255 628.19361089 709.34892136 626.87733006 C709.85500074 617.06279068 710.38548857 607.25032578 710.97006088 597.4401505 C711.03701157 596.27322667 711.10396225 595.10630284 711.17294174 593.90401769 C711.54520182 587.77422276 712.03488915 581.66516156 712.61674362 575.55231786 C713.75126147 563.61468287 714.50055502 551.68397459 715.11166245 539.7090714 C716.23211742 517.8674023 717.62144906 496.05167169 719.16525131 474.23623204 C720.53567715 454.85268163 721.77260435 435.46522694 722.86849838 416.06417394 C723.39841051 406.8040829 724.02035658 397.56621978 724.83724838 388.32686925 C726.36086896 370.87376542 727.24573921 353.37299022 728.2461229 335.88387609 C728.67098094 328.46580654 729.10074573 321.04801862 729.5308252 313.63025022 C729.6359177 311.81740268 729.740886 310.00454793 729.84572846 308.19168591 C730.59656015 295.22036572 731.39027973 282.25270425 732.24679428 269.28791356 C732.80190508 260.88263099 733.30275189 252.47505421 733.78256088 244.0651505 C734.78207791 226.73220731 735.91409764 209.40807125 737.04174668 192.08306432 C738.03798592 176.77269123 739.01859963 161.46161841 739.95052963 146.14718175 C740.01426175 145.1000246 740.01426175 145.1000246 740.07928139 144.03171277 C740.24988385 141.22745244 740.42034846 138.42318376 740.59069973 135.61890817 C741.84886542 114.90819486 743.12494388 94.19961934 744.59506088 73.5026505 C744.6861966 72.20502782 744.6861966 72.20502782 744.77917343 70.88119054 C744.9478212 68.49175762 745.12019758 66.10263047 745.29427963 63.713588 C745.38926743 62.4043839 745.48425522 61.0951798 745.58212143 59.74630284 C745.90394989 56.16780215 746.23678314 52.65879425 746.90756088 49.1276505 C747.56756088 48.7976505 748.22756088 48.4676505 748.90756088 48.1276505 C751.82764809 57.81006872 749.7384913 69.50019664 749.06381088 79.43624425 C748.97313588 80.8201199 748.88294077 82.20402707 748.793181 83.58796239 C748.60079339 86.55025227 748.40656319 89.51241351 748.21127182 92.47451329 C747.73727124 99.69804096 747.29274674 106.92342118 746.84484726 114.14860463 C746.58179549 118.38713751 746.31684953 122.625552 746.05209213 126.86397862 C745.72945976 132.03169053 745.40694533 137.19940973 745.08480698 142.36715245 C743.50174962 167.76018793 741.91734929 193.15308531 740.20883042 218.53805089 C738.59889301 242.47026267 737.07406668 266.40577782 735.6313768 290.34862828 C733.07994085 332.66068443 730.4186196 374.96571813 727.72325271 417.26880515 C727.38585113 422.56520968 727.0494081 427.86167447 726.71340805 433.15816808 C726.16335716 441.82653587 725.61094316 450.49475086 725.05599838 459.16280675 C724.98878688 460.21304863 724.98878688 460.21304863 724.92021757 461.28450751 C723.53515693 482.91289639 722.04686916 504.53250632 720.50277382 526.15019727 C719.23570006 543.93373235 718.16171093 561.7167027 717.25479275 579.52174401 C716.53818067 593.44897827 715.65043227 607.36722067 714.78524643 621.28585362 C714.57402849 624.68737652 714.3658102 628.08906253 714.16024643 631.49093175 C713.09237605 649.14752627 711.94503891 666.79141116 710.39193588 684.41280675 C710.33437685 685.08752774 710.27681782 685.76224874 710.21751457 686.45741582 C707.92925783 713.02068297 698.6205559 742.78507998 677.90756088 761.1276505 C677.24756088 761.1276505 676.58756088 761.1276505 675.90756088 761.1276505 C675.57756088 762.1176505 675.24756088 763.1076505 674.90756088 764.1276505 C663.06922148 775.85485111 647.33701182 784.1773946 631.72006088 789.5651505 C631.0446727 789.80032384 630.36928452 790.03549718 629.67343003 790.27779698 C616.56870605 794.46888445 603.05953254 794.41857299 589.46414047 794.38834691 C587.52210371 794.39137237 585.58006814 794.39526383 583.63803464 794.39993948 C578.33425457 794.41017735 573.03054241 794.40804843 567.72675687 794.40375888 C561.99380975 794.40128397 556.26087866 794.41031532 550.52793747 794.41779637 C539.30889726 794.43052433 528.08988101 794.43233943 516.8708348 794.42999611 C507.74803638 794.4282106 498.62524522 794.42996758 489.50244766 794.43422055 C487.55229576 794.43511334 487.55229576 794.43511334 485.56274684 794.43602416 C482.92128448 794.43723595 480.27982212 794.43845009 477.63835976 794.43966653 C459.91157857 794.44744958 442.1848005 794.45137583 424.45801789 794.44734979 C423.76556886 794.44719341 423.07311983 794.44703703 422.3596875 794.44687592 C418.85052768 794.4460702 415.34136787 794.44522443 411.83220807 794.44436262 C411.13534779 794.44419153 410.43848752 794.44402044 409.72051027 794.44384417 C408.31129127 794.44349751 406.90207226 794.44314898 405.49285326 794.44279858 C383.57166567 794.43744292 361.65051832 794.44537004 339.72933823 794.46383214 C315.06831695 794.4845777 290.40732155 794.49523888 265.74629098 794.49125665 C252.70086887 794.48934682 239.6554834 794.49181097 226.6100679 794.50597119 C215.50383556 794.51790494 204.39766244 794.51926754 193.29142925 794.50718103 C187.63046865 794.50130627 181.96961625 794.500154 176.30866295 794.51218343 C171.11592393 794.52308921 165.92338285 794.51988337 160.7306529 794.50592174 C158.86266127 794.50328768 156.99465389 794.50560023 155.12667778 794.51365761 C125.16568845 794.63381409 99.42449016 787.02645167 75.90756088 768.1276505 C75.0374437 767.45089269 74.16732651 766.77413487 73.27084213 766.07686925 C62.69470145 757.35373834 53.86871023 744.37217349 47.90756088 732.1276505 C47.46799057 731.24593175 47.02842026 730.364213 46.57552963 729.4557755 C39.42501245 714.506658 36.78684149 699.19823097 35.49740463 682.83468175 C35.43572539 682.07436965 35.37404614 681.31405755 35.31049782 680.53070569 C33.47310222 657.84935253 32.1100866 635.13271641 30.69524628 612.42201161 C30.31341211 606.30606066 29.92732043 600.19037848 29.54159409 594.07467198 C28.93477241 584.44694361 28.32995206 574.81909206 27.72689682 565.19112706 C26.77218413 549.95175292 25.80560754 534.71314366 24.83575302 519.47472692 C24.60664732 515.87233243 24.37817719 512.26989835 24.14999253 508.66744542 C23.80649829 503.2448405 23.4615609 497.82232896 23.11581284 492.3998673 C22.97535388 490.19286686 22.83539101 487.9858348 22.69589096 485.77877355 C21.62528697 468.8469256 20.48884998 451.92027301 19.32162338 434.994838 C13.76159489 354.32151839 13.76159489 354.32151839 11.78256088 319.1276505 C11.70640943 317.77514195 11.6302579 316.42263341 11.5541063 315.07012486 C11.51647108 314.40135225 11.47883587 313.73257964 11.4400602 313.04354119 C11.24972787 309.66141075 11.05922676 306.27928988 10.86849838 302.89718175 C10.83091038 302.22987475 10.79332237 301.56256776 10.75459534 300.87503934 C9.7185484 282.51687805 8.56837099 264.16578403 7.40756088 245.8151505 C7.32789078 244.5540886 7.32789078 244.5540886 7.24661118 243.26755071 C5.78854383 220.20315377 4.2236316 197.14957687 2.53304917 174.1009171 C1.18087602 155.61697797 0.06531652 137.12735869 -0.94400162 118.62179112 C-2.0776603 97.90680807 -3.39503109 77.20484035 -4.73501724 56.50240636 C-6.15109813 34.58341588 -6.15109813 34.58341588 -6.70572037 24.33468175 C-6.74573166 23.61368291 -6.78574295 22.89268407 -6.8269667 22.14983678 C-7.19116371 15.14100046 -7.18682183 8.1434326 -7.09243912 1.1276505 C-4.56476348 -0.13618732 -2.83066227 0.00154763 0 0 Z " fill="#FBFCFE" transform="translate(196.09243911504745,297.8723495006561)"/>
<path d="M0 0 C2.40942704 -0.00570984 4.81885137 -0.01267647 7.22827148 -0.02079773 C13.06795361 -0.03682499 18.90751195 -0.0388433 24.74721137 -0.03358483 C29.49934914 -0.02952567 34.25145526 -0.03100728 39.00359154 -0.03633308 C40.02229147 -0.03745572 40.02229147 -0.03745572 41.06157121 -0.03860103 C42.44171857 -0.04013268 43.82186593 -0.04167103 45.20201328 -0.043216 C58.11445434 -0.05691086 71.02683463 -0.05152488 83.93927427 -0.04003078 C95.71941023 -0.03010411 107.49938898 -0.04303462 119.2795007 -0.06696498 C131.41181895 -0.09142273 143.54406418 -0.10094736 155.67640656 -0.09431225 C162.47315842 -0.09083448 169.26978955 -0.09295587 176.0665226 -0.11056328 C182.46151261 -0.12610169 188.85620404 -0.12200036 195.25118256 -0.10325813 C197.58751814 -0.09959117 199.92387618 -0.10262492 202.26019096 -0.11314392 C218.0163325 -0.17862474 233.07554002 0.46548726 247.35424805 7.96655273 C248.00844727 8.30388428 248.66264648 8.64121582 249.33666992 8.98876953 C265.26545178 17.63887509 277.07492846 33.43924367 282.4296875 50.64086914 C283.28182586 54.13145981 283.74127019 57.64497354 284.1862793 61.20483398 C284.27574829 61.89855103 284.36521729 62.59226807 284.45739746 63.30700684 C284.67603294 65.00563633 284.89055764 66.70479406 285.10424805 68.40405273 C285.75868896 68.40313094 286.41312988 68.40220915 287.08740234 68.40125942 C303.32177019 68.37876945 319.55613233 68.36243639 335.79051208 68.35224056 C343.6426552 68.34717372 351.49478754 68.34028772 359.34692383 68.32861328 C389.63558757 68.28476585 419.92691371 68.25121753 450.21334839 68.67178535 C452.60515682 68.70376042 454.99703058 68.73122761 457.38894653 68.75376701 C471.87738454 68.89836022 484.93949277 69.18983798 498.10424805 75.90405273 C498.77576904 76.2437207 499.44729004 76.58338867 500.13916016 76.93334961 C507.18088248 80.68804247 512.6034842 85.69204604 518.10424805 91.40405273 C518.76811523 92.04858398 519.43198242 92.69311523 520.1159668 93.35717773 C534.34563169 108.06649426 537.25071247 127.43579196 537.2722168 147.02905273 C537.2755452 148.09776611 537.2788736 149.16647949 537.28230286 150.26757812 C537.28733101 152.50626193 537.28971247 154.74495313 537.28955078 156.98364258 C537.29175963 160.42207826 537.31001899 163.86020397 537.32885742 167.29858398 C537.33178768 169.47957247 537.33377493 171.66056248 537.3347168 173.84155273 C537.34190231 174.8716748 537.34908783 175.90179688 537.35649109 176.96313477 C537.35341446 177.91172363 537.35033783 178.8603125 537.34716797 179.83764648 C537.34859299 180.67352295 537.35001801 181.50939941 537.35148621 182.37060547 C537.10424805 184.40405273 537.10424805 184.40405273 535.10424805 186.40405273 C532.56358274 186.65339506 532.56358274 186.65339506 529.27097356 186.65244973 C528.01797259 186.65694431 526.76497163 186.6614389 525.47400093 186.66606969 C524.0678075 186.66093738 522.66161473 186.65562351 521.25542259 186.65014839 C519.76766274 186.65162629 518.27990355 186.65398198 516.79214633 186.65714139 C512.67061798 186.6633141 508.54918736 186.65690069 504.42766625 186.64858512 C499.95641767 186.64174623 495.48517952 186.64645265 491.01392901 186.6497401 C483.16655918 186.65389815 475.31921959 186.65058209 467.47185326 186.64246368 C455.80299411 186.63042521 444.13415416 186.62978913 432.46528993 186.63154766 C412.83923388 186.63417952 393.21319127 186.62747728 373.58713913 186.61551285 C354.14608061 186.60369148 334.70502769 186.59598352 315.26396561 186.59380722 C313.45290976 186.593601 313.45290976 186.593601 311.60526692 186.59339062 C305.47400572 186.59271398 299.34274452 186.5921112 293.21148331 186.59153686 C249.74832556 186.58733254 206.28517512 186.57384805 162.82202148 186.55493164 C120.58992553 186.53657219 78.35783157 186.52240036 36.12573242 186.51391602 C34.82467277 186.51365296 33.52361313 186.51338991 32.18312743 186.51311889 C19.11772535 186.51048192 6.05232326 186.50793028 -7.01307885 186.50544117 C-33.63041327 186.50036831 -60.24774756 186.49472581 -86.86508179 186.48873901 C-88.7009412 186.48832714 -88.7009412 186.48832714 -90.57388867 186.48790695 C-172.34784614 186.46949588 -254.12179955 186.43780435 -335.89575195 186.40405273 C-338.1504881 178.76193817 -338.1504881 178.76193817 -338.07861328 174.53295898 C-338.06812454 173.64092773 -338.0576358 172.74889648 -338.04682922 171.82983398 C-338.01265144 170.41250977 -338.01265144 170.41250977 -337.9777832 168.96655273 C-337.95987228 167.96881836 -337.94196136 166.97108398 -337.92350769 165.94311523 C-337.88243819 163.83509354 -337.83588379 161.72717243 -337.78417969 159.61938477 C-337.70915288 156.44220434 -337.65967889 153.26534796 -337.61254883 150.08764648 C-337.12573628 124.75351904 -332.18899223 105.04111113 -313.66870117 86.69116211 C-304.71991285 78.21834355 -294.79529132 73.36638532 -282.89575195 70.40405273 C-281.94204696 70.14148383 -281.94204696 70.14148383 -280.9690752 69.8736105 C-277.36041636 69.05633621 -273.66023623 69.16084339 -269.97460938 69.08984375 C-269.05326769 69.06918539 -268.131926 69.04852703 -267.18266487 69.02724266 C-264.05977653 68.96034171 -260.93681095 68.9021204 -257.8137207 68.84545898 C-256.16392243 68.81387286 -256.16392243 68.81387286 -254.48079491 68.78164864 C-223.16765608 68.19668411 -191.84994631 68.287861 -160.5327481 68.33202517 C-152.25613719 68.34348786 -143.97952512 68.34877142 -135.70290816 68.35372913 C-118.76718009 68.3640023 -101.83146814 68.38142686 -84.89575195 68.40405273 C-84.61115112 66.68400024 -84.61115112 66.68400024 -84.32080078 64.92919922 C-84.06091542 63.39863285 -83.80072673 61.86811797 -83.5402832 60.33764648 C-83.41657349 59.58495483 -83.29286377 58.83226318 -83.16540527 58.0567627 C-80.10700893 40.25063471 -70.76103886 24.43803922 -56.11474609 13.68603516 C-38.15211806 1.13999326 -21.20957752 -0.04547685 0 0 Z M-57.89575195 19.40405273 C-57.89575195 20.06405273 -57.89575195 20.72405273 -57.89575195 21.40405273 C-58.55575195 21.40405273 -59.21575195 21.40405273 -59.89575195 21.40405273 C-59.89575195 22.06405273 -59.89575195 22.72405273 -59.89575195 23.40405273 C-60.48614258 23.64381836 -61.0765332 23.88358398 -61.68481445 24.13061523 C-70.76223114 29.35895064 -76.64036549 44.82586117 -79.25219727 54.53295898 C-80.01013333 57.91434295 -80.50015237 61.29186934 -80.97387695 64.72436523 C-81.14822266 65.97749512 -81.32256836 67.230625 -81.50219727 68.52172852 C-81.63207031 69.47289551 -81.76194336 70.4240625 -81.89575195 71.40405273 C-82.88120436 71.40736288 -83.86665676 71.41067303 -84.88197136 71.41408348 C-108.8779836 71.49513539 -132.87393231 71.58746859 -156.86985588 71.69157982 C-168.47417767 71.74166731 -180.07849253 71.78811069 -191.68286133 71.82592773 C-201.79911459 71.85890451 -211.91531347 71.89876714 -222.03150666 71.94684279 C-227.38621471 71.97205123 -232.74088696 71.99384918 -238.09563828 72.0073967 C-243.14022144 72.0202684 -248.18468146 72.04237765 -253.22919655 72.07143593 C-255.07619835 72.08047185 -256.92321995 72.08619258 -258.77024269 72.08826637 C-279.70794192 72.11597412 -297.88430302 76.10716682 -313.6105957 90.98608398 C-327.54755486 105.73305444 -334.27399504 125.60986261 -334.1262207 145.62670898 C-334.12576248 146.65340195 -334.12530426 147.68009491 -334.12483215 148.73789978 C-334.12183314 150.8866391 -334.11401829 153.03537672 -334.1015625 155.18408203 C-334.08312895 158.48860259 -334.08105435 161.79284514 -334.08129883 165.09741211 C-334.07638941 167.19051351 -334.07056363 169.28361301 -334.0637207 171.37670898 C-334.06260788 172.36824478 -334.06149506 173.35978058 -334.06034851 174.38136292 C-334.05396866 175.28998581 -334.04758881 176.1986087 -334.04101562 177.13476562 C-334.03720383 177.93733292 -334.03339203 178.73990021 -334.02946472 179.56678772 C-334.09573965 181.42203682 -334.09573965 181.42203682 -332.89575195 182.40405273 C-331.00550314 182.50212812 -329.11152751 182.52852448 -327.21873611 182.52825123 C-325.35335623 182.53162217 -325.35335623 182.53162217 -323.4502919 182.53506121 C-322.04954817 182.5324949 -320.64880459 182.52983796 -319.24806118 182.52710056 C-317.76999479 182.5278393 -316.29192856 182.52901692 -314.81386283 182.53059706 C-310.71461057 182.53368676 -306.61538283 182.53047396 -302.51613238 182.52631893 C-298.07074352 182.52290223 -293.62535729 182.52525216 -289.17996794 182.52689642 C-281.3764557 182.52897631 -273.57295106 182.52731594 -265.7694397 182.52325821 C-254.16577101 182.51724113 -242.56210715 182.51692073 -230.95843719 182.5178002 C-211.44240757 182.51911639 -191.92638134 182.51576401 -172.41035271 182.50978279 C-153.07732057 182.5038728 -133.74428983 182.50001827 -114.41125679 182.49892998 C-113.21074922 182.49886124 -112.01024165 182.4987925 -110.77335506 182.49872168 C-104.67698512 182.49838336 -98.58061519 182.49808197 -92.48424525 182.4977948 C-49.26456098 182.49569244 -6.04487855 182.48894967 37.17480469 182.47949219 C79.17122386 182.47031297 121.16764253 182.4632268 163.1640625 182.45898438 C164.45778339 182.45885285 165.75150429 182.45872132 167.08442884 182.45858581 C180.07609355 182.45726733 193.06775827 182.45599151 206.05942299 182.45474695 C232.5267115 182.4522105 258.99399998 182.44938925 285.46128845 182.44639587 C286.67830457 182.44625858 287.89532069 182.44612129 289.14921608 182.44597984 C370.46756083 182.43677377 451.78590457 182.42092795 533.10424805 182.40405273 C534.81971159 178.97312564 534.26749292 175.03526901 534.2722168 171.25952148 C534.2755452 170.3387532 534.2788736 169.41798492 534.28230286 168.46931458 C534.28737593 166.51144917 534.28971107 164.55357509 534.28955078 162.59570312 C534.29171137 159.64169339 534.30979014 156.68807316 534.32885742 153.73413086 C534.40062296 130.12851917 531.13448758 108.67876633 513.9597168 91.13452148 C501.66353437 79.37661244 484.23302589 72.26856003 467.21391296 72.24583435 C466.42559879 72.24089637 465.63728461 72.2359584 464.82508212 72.23087078 C462.18726386 72.2155297 459.54946987 72.20714436 456.91162109 72.19873047 C455.01927986 72.18914928 453.12694075 72.17913906 451.23460388 72.16873169 C446.09871375 72.14170267 440.96281446 72.12068224 435.82689261 72.1007297 C430.45902572 72.07885782 425.09118703 72.05147501 419.7233429 72.02467346 C409.55914223 71.97476285 399.39492589 71.92981795 389.23069459 71.8866511 C377.65883338 71.83726479 366.08700047 71.78235182 354.51516664 71.72697151 C330.71155352 71.6131765 306.90791324 71.50633204 283.10424805 71.40405273 C282.71462891 69.59094604 282.71462891 69.59094604 282.31713867 67.74121094 C281.96512367 66.12487537 281.61289892 64.50858547 281.26049805 62.89233398 C281.09066406 62.09927856 280.92083008 61.30622314 280.74584961 60.48913574 C278.68540696 51.08475557 276.4096923 41.88318364 270.10424805 34.40405273 C269.38363824 33.21516788 268.69028157 32.00873967 268.04174805 30.77905273 C266.00267124 27.19077611 266.00267124 27.19077611 263.10424805 24.40405273 C262.44424805 24.40405273 261.78424805 24.40405273 261.10424805 24.40405273 C261.04237305 23.53780273 261.04237305 23.53780273 260.97924805 22.65405273 C259.67825501 19.30864207 257.05971215 18.16187779 254.10424805 16.40405273 C253.50225586 16.00057617 252.90026367 15.59709961 252.2800293 15.18139648 C235.52590477 4.06862018 217.20107097 3.96135178 197.81616211 4.01586914 C195.37714911 4.01179814 192.93813795 4.0064533 190.49913025 3.99993896 C184.59274975 3.98773496 178.68647454 3.98944378 172.7800971 3.99817689 C167.97739926 4.00498136 163.17473345 4.00585829 158.37203217 4.00260544 C157.34261087 4.00191589 157.34261087 4.00191589 156.29239319 4.00121241 C154.89781897 4.00025314 153.50324476 3.9992805 152.10867056 3.99829464 C139.06859564 3.98976422 126.02858426 3.99953919 112.98851976 4.01569574 C101.81694043 4.02910882 90.64545461 4.02675813 79.47387695 4.01293945 C66.47088705 3.99686273 53.46795259 3.99057537 40.46495414 3.99977624 C39.07703639 4.00073181 37.68911863 4.00167492 36.30120087 4.00260544 C35.61847436 4.00306826 34.93574785 4.00353109 34.23233266 4.00400794 C29.43734806 4.00659067 24.64239886 4.00224263 19.84741974 3.99516678 C13.38928869 3.98584513 6.93129239 3.99253895 0.47317696 4.00984955 C-1.89309077 4.01380794 -4.2593734 4.01269148 -6.62563515 4.00606155 C-9.86209265 3.99783098 -13.09798956 4.0081862 -16.33441162 4.02310181 C-17.72966367 4.01306356 -17.72966367 4.01306356 -19.15310264 4.00282252 C-33.01995942 4.12629004 -47.30054371 10.57471254 -57.89575195 19.40405273 Z " fill="#FDFDFE" transform="translate(468.895751953125,45.595947265625)"/>
<path d="M0 0 C1.32 0.66 2.64 1.32 4 2 C3.01 6.95 2.02 11.9 1 17 C1 32.51 1 48.02 1 64 C420.265 64.495 420.265 64.495 848 65 C848 65.33 848 65.66 848 66 C569.48 66 290.96 66 4 66 C3.67 66.99 3.34 67.98 3 69 C1.35 69 -0.3 69 -2 69 C-4.0732301 63.06572863 -4.23277573 57.81374857 -4.08203125 51.5625 C-4.06412033 50.56476563 -4.04620941 49.56703125 -4.02775574 48.5390625 C-3.98668624 46.43104081 -3.94013183 44.32311969 -3.88842773 42.21533203 C-3.81340092 39.03815161 -3.76392694 35.86129523 -3.71679688 32.68359375 C-3.49942393 21.46596209 -2.80536543 10.89411451 0 0 Z " fill="#EEF1F9" transform="translate(135,163)"/>
<path d="M0 0 C1.63780693 0.00113188 3.27561587 0.000488 4.91342163 -0.00177002 C9.30507985 -0.00290485 13.69628968 0.02040174 18.08784485 0.04852581 C22.69753671 0.07374783 27.30724196 0.07589769 31.91699219 0.08062744 C40.62180188 0.09299669 49.32640756 0.12573526 58.03112793 0.1660254 C67.95147477 0.21093289 77.87183201 0.2327776 87.7922554 0.25280714 C108.17672107 0.29447415 128.56100387 0.36470687 148.9453125 0.45410156 C148.9453125 0.78410156 148.9453125 1.11410156 148.9453125 1.45410156 C148.18017177 1.4583335 147.41503103 1.46256544 146.62670422 1.46692562 C128.02416301 1.57015166 109.42166054 1.6787773 90.81918621 1.79344082 C81.82323702 1.84876009 72.82728387 1.90223997 63.83129883 1.95141602 C55.99200401 1.99427371 48.15273824 2.04055574 40.3134883 2.09098011 C36.16123322 2.11756825 32.00898385 2.14242103 27.85669518 2.16317558 C23.9505788 2.18275372 20.04451765 2.20690106 16.13845062 2.23459244 C14.70293238 2.24395663 13.26740202 2.25163419 11.83186531 2.25752068 C9.87544999 2.26579246 7.91906583 2.28065812 5.96269226 2.29588318 C4.8666804 2.30233573 3.77066854 2.30878828 2.64144421 2.31543636 C-0.1541788 2.33888596 -0.1541788 2.33888596 -3.0546875 3.45410156 C-5.0546875 3.45410156 -7.0546875 3.45410156 -9.0546875 3.45410156 C-10.73011726 3.74015055 -12.39854093 4.07191389 -14.0546875 4.45410156 C-14.8590625 4.57785156 -15.6634375 4.70160156 -16.4921875 4.82910156 C-19.1982698 5.37341166 -19.1982698 5.37341166 -21.9296875 7.01660156 C-25.54043227 8.67754416 -28.12574208 8.68983829 -32.0546875 8.45410156 C-32.0546875 7.79410156 -32.0546875 7.13410156 -32.0546875 6.45410156 C-33.0446875 6.45410156 -34.0346875 6.45410156 -35.0546875 6.45410156 C-35.0546875 7.11410156 -35.0546875 7.77410156 -35.0546875 8.45410156 C-36.7046875 9.11410156 -38.3546875 9.77410156 -40.0546875 10.45410156 C-40.3846875 9.79410156 -40.7146875 9.13410156 -41.0546875 8.45410156 C-28.27397698 0.9986871 -14.42399738 -0.14229548 0 0 Z " fill="#DEE2EC" transform="translate(211.0546875,117.5458984375)"/>
<path d="M0 0 C2.97 0 5.94 0 9 0 C9 0.99 9 1.98 9 3 C9.66 3 10.32 3 11 3 C11 4.32 11 5.64 11 7 C13.64 7 16.28 7 19 7 C19 7.99 19 8.98 19 10 C19.66 9.67 20.32 9.34 21 9 C20.6875 10.9375 20.6875 10.9375 20 13 C19.01 13.33 18.02 13.66 17 14 C17 14.66 17 15.32 17 16 C19.31 15.34 21.62 14.68 24 14 C25 17.875 25 17.875 25 19 C25.32670903 21.00109278 25.65977214 23.00116131 26 25 C25.34 25.33 24.68 25.66 24 26 C24 25.34 24 24.68 24 24 C22.35 23.34 20.7 22.68 19 22 C19 21.34 19 20.68 19 20 C18.46503906 19.80019531 17.93007813 19.60039063 17.37890625 19.39453125 C13.95009607 17.38453907 11.58814027 14.61783973 8.9375 11.6875 C8.14375977 10.83381836 8.14375977 10.83381836 7.33398438 9.96289062 C4.45980908 6.82185338 2.04281254 3.76754008 0 0 Z " fill="#DCE1EA" transform="translate(255,1041)"/>
<path d="M0 0 C0.66 0.33 1.32 0.66 2 1 C1.67 1.99 1.34 2.98 1 4 C1.5775 3.79375 2.155 3.5875 2.75 3.375 C5.51967567 2.91338739 6.64561267 3.57055055 9 5 C8.67 5.99 8.34 6.98 8 8 C7.34 8 6.68 8 6 8 C6 8.66 6 9.32 6 10 C3.40163864 11.36645701 0.79734444 12.71830669 -1.8125 14.0625 C-2.55048828 14.45244141 -3.28847656 14.84238281 -4.04882812 15.24414062 C-4.76103516 15.60830078 -5.47324219 15.97246094 -6.20703125 16.34765625 C-6.8616333 16.68804932 -7.51623535 17.02844238 -8.19067383 17.37915039 C-10 18 -10 18 -13 17 C-14.125 12.25 -14.125 12.25 -13 10 C-10.4375 9.375 -10.4375 9.375 -8 9 C-8 8.34 -8 7.68 -8 7 C-7.67 6.67 -7.34 6.34 -7 6 C-7 5.01 -7 4.02 -7 3 C-5.68 3 -4.36 3 -3 3 C-2.67 3.99 -2.34 4.98 -2 6 C-1.34 6.33 -0.68 6.66 0 7 C-0.2784375 5.824375 -0.2784375 5.824375 -0.5625 4.625 C-1 2 -1 2 0 0 Z " fill="#CED3E1" transform="translate(848,1061)"/>
<path d="M0 0 C5.45854803 -0.07498534 10.91678652 -0.12899073 16.37573242 -0.16479492 C18.22702263 -0.17974413 20.07827829 -0.20011097 21.92944336 -0.22631836 C45.13431969 -0.54625583 45.13431969 -0.54625583 53 3 C54.14526367 5.04614258 54.14526367 5.04614258 55 7 C55.99 7.33 56.98 7.66 58 8 C57.67 8.66 57.34 9.32 57 10 C54.66666667 10 52.33333333 10 50 10 C49.05125 10.020625 48.1025 10.04125 47.125 10.0625 C44.48774523 10.0097549 42.50360461 9.7153156 40 9 C39.34 9 38.68 9 38 9 C38 7.02 38 5.04 38 3 C34.33043403 1.77681134 30.87678997 1.76883876 27.05078125 1.68359375 C25.89185616 1.6524221 25.89185616 1.6524221 24.70951843 1.62062073 C22.2439352 1.55528962 19.77824639 1.49631685 17.3125 1.4375 C15.63996309 1.39429913 13.96743681 1.35068434 12.29492188 1.30664062 C8.1967225 1.1996251 4.09841704 1.09831143 0 1 C0 0.67 0 0.34 0 0 Z " fill="#DEE1ED" transform="translate(904,118)"/>
<path d="M0 0 C0.33 0 0.66 0 1 0 C1.05379226 2.95857409 1.09357093 5.91617721 1.125 8.875 C1.14175781 9.71675781 1.15851562 10.55851562 1.17578125 11.42578125 C1.18222656 12.23144531 1.18867187 13.03710938 1.1953125 13.8671875 C1.20578613 14.61081543 1.21625977 15.35444336 1.22705078 16.12060547 C1 18 1 18 -1 20 C-1.33 19.01 -1.66 18.02 -2 17 C-3.59076383 31.73141239 -4.70372649 46.46285874 -5.625 61.25 C-5.76008691 63.37502099 -5.89550196 65.50002114 -6.03125 67.625 C-6.35793195 72.74976887 -6.6802354 77.87479506 -7 83 C-7.33 83 -7.66 83 -8 83 C-8.19448477 80.87562788 -8.38038289 78.75046809 -8.5625 76.625 C-8.66691406 75.44164062 -8.77132812 74.25828125 -8.87890625 73.0390625 C-9 70 -9 70 -8 68 C-8.66 67.67 -9.32 67.34 -10 67 C-9.125 62.25 -9.125 62.25 -8 60 C-8.66 59.67 -9.32 59.34 -10 59 C-9.01 59 -8.02 59 -7 59 C-6.98541748 57.97753174 -6.97083496 56.95506348 -6.95581055 55.90161133 C-6.89707831 52.04516602 -6.81986345 48.1892599 -6.73754883 44.33325195 C-6.70464685 42.67611555 -6.67651149 41.01887641 -6.65356445 39.36157227 C-6.28292753 13.28292753 -6.28292753 13.28292753 -1 8 C-0.54188325 6.02764667 -0.54188325 6.02764667 -0.375 3.875 C-0.25125 2.59625 -0.1275 1.3175 0 0 Z " fill="#E0E5EE" transform="translate(946,330)"/>
<path d="M0 0 C0.33 0 0.66 0 1 0 C1.13277344 0.74765625 1.26554688 1.4953125 1.40234375 2.265625 C1.57894531 3.25046875 1.75554687 4.2353125 1.9375 5.25 C2.19853516 6.71179688 2.19853516 6.71179688 2.46484375 8.203125 C3.08829607 11.46145977 3.67177648 14.32531833 5.125 17.3125 C6.27407152 20.8417911 5.54092268 23.3337463 5 27 C5.18630733 30.35353198 5.56453748 33.67038658 6 37 C5.01 37 4.02 37 3 37 C3.16371094 38.11375 3.32742187 39.2275 3.49609375 40.375 C4.10669314 45.25979515 4.11158497 50.08395145 4.0625 55 C4.05798828 55.87011719 4.05347656 56.74023438 4.04882812 57.63671875 C4.0371736 59.75784293 4.01924357 61.8789311 4 64 C3.67 64 3.34 64 3 64 C2.91697632 62.29070312 2.91697632 62.29070312 2.83227539 60.546875 C2.6247091 56.29004844 2.41315471 52.03342758 2.20043945 47.77685547 C2.10919394 45.93999455 2.01900766 44.10308068 1.92993164 42.26611328 C1.80117628 39.61475995 1.66852191 36.96362496 1.53515625 34.3125 C1.49656998 33.50071289 1.4579837 32.68892578 1.41822815 31.85253906 C1.22655723 28.11079044 0.9583868 24.41515598 0.47265625 20.69921875 C0.11550735 17.90401207 -0.11957291 15.30533191 -0.09765625 12.5 C-0.09443359 11.75878906 -0.09121094 11.01757812 -0.08789062 10.25390625 C-0.07951172 9.51011719 -0.07113281 8.76632812 -0.0625 8 C-0.05798828 7.22527344 -0.05347656 6.45054687 -0.04882812 5.65234375 C-0.03719758 3.76819476 -0.01926906 1.88408635 0 0 Z " fill="#DCE1EB" transform="translate(194,319)"/>
<path d="M0 0 C0.33 0 0.66 0 1 0 C1 11.55 1 23.1 1 35 C4.74691447 36.39770584 4.74691447 36.39770584 7 35 C7.06058594 35.60328125 7.12117187 36.2065625 7.18359375 36.828125 C7.26738281 37.62734375 7.35117188 38.4265625 7.4375 39.25 C7.51871094 40.03890625 7.59992188 40.8278125 7.68359375 41.640625 C7.97634993 43.82364639 8.42064419 45.8773182 9 48 C2.84765625 48.09765625 2.84765625 48.09765625 1 48 C0 47 0 47 -0.12025452 45.09544373 C-0.11803391 44.26271439 -0.11581329 43.42998505 -0.11352539 42.57202148 C-0.11344986 41.63112167 -0.11337433 40.69022186 -0.11329651 39.72080994 C-0.10813522 38.69790359 -0.10297394 37.67499725 -0.09765625 36.62109375 C-0.0962413 35.57929459 -0.09482635 34.53749542 -0.09336853 33.46412659 C-0.0877508 30.12188906 -0.0751953 26.77971743 -0.0625 23.4375 C-0.05748728 21.17773534 -0.05292398 18.91796963 -0.04882812 16.65820312 C-0.03777561 11.10544609 -0.02102024 5.55272775 0 0 Z " fill="#DFE2ED" transform="translate(135,180)"/>
<path d="M0 0 C1.32 0.66 2.64 1.32 4 2 C3.34 2.66 2.68 3.32 2 4 C1.6153122 5.90349223 1.31398065 7.82437676 1.0625 9.75 C0.35631283 14.45038178 -0.53002642 17.95822506 -3 22 C-3.33 21.01 -3.66 20.02 -4 19 C-5.98 19.99 -5.98 19.99 -8 21 C-7.52432875 13.74601342 -5.70533406 7.73187777 -3 1 C-2.01 1.33 -1.02 1.66 0 2 C0 1.34 0 0.68 0 0 Z " fill="#DEE2EB" transform="translate(144,158)"/>
<path d="M0 0 C0.33 0 0.66 0 1 0 C0.67 10.23 0.34 20.46 0 31 C-5 28 -5 28 -6 26 C-6.06950541 24.45976004 -6.08452357 22.91665012 -6.0625 21.375 C-6.05347656 20.55773437 -6.04445313 19.74046875 -6.03515625 18.8984375 C-6.02355469 18.27195312 -6.01195312 17.64546875 -6 17 C-6.99 16.67 -7.98 16.34 -9 16 C-8.01 16 -7.02 16 -6 16 C-6 15.34 -6 14.68 -6 14 C-7.32 13.34 -8.64 12.68 -10 12 C-9.67 11.34 -9.34 10.68 -9 10 C-8.34 10 -7.68 10 -7 10 C-6.34 8.35 -5.68 6.7 -5 5 C-4.67 5 -4.34 5 -4 5 C-4 12.26 -4 19.52 -4 27 C-3.34 27 -2.68 27 -2 27 C-2 20.73 -2 14.46 -2 8 C-1.34 8 -0.68 8 0 8 C0 5.36 0 2.72 0 0 Z " fill="#DBE0EC" transform="translate(930,526)"/>
<path d="M0 0 C0.33 0 0.66 0 1 0 C1.02467081 6.08723655 1.04284604 12.17444417 1.05493164 18.26171875 C1.05996852 20.33366401 1.06679825 22.4056057 1.07543945 24.47753906 C1.08753321 27.45118082 1.09323467 30.42477569 1.09765625 33.3984375 C1.10281754 34.32868744 1.10797882 35.25893738 1.11329651 36.21737671 C1.11340981 37.50848862 1.11340981 37.50848862 1.11352539 38.82568359 C1.115746 39.58513275 1.11796661 40.34458191 1.12025452 41.12704468 C1 43 1 43 0 45 C-4.62 45 -9.24 45 -14 45 C-14.495 43.515 -14.495 43.515 -15 42 C-14.15695312 41.97421875 -13.31390625 41.9484375 -12.4453125 41.921875 C-11.34960938 41.86515625 -10.25390625 41.8084375 -9.125 41.75 C-7.48917969 41.68039063 -7.48917969 41.68039063 -5.8203125 41.609375 C-2.98273739 41.31557272 -2.98273739 41.31557272 -1.84960938 39.4921875 C-0.61660624 35.8753783 -0.64131952 32.29695663 -0.5859375 28.515625 C-0.56657135 27.70003113 -0.5472052 26.88443726 -0.5272522 26.04412842 C-0.46760425 23.44619108 -0.42113058 20.84820907 -0.375 18.25 C-0.33680658 16.48565806 -0.29775405 14.72133449 -0.2578125 12.95703125 C-0.16191495 8.63817054 -0.07782953 4.31922256 0 0 Z " fill="#E1E5EE" transform="translate(1002,183)"/>
<path d="M0 0 C0.33 0 0.66 0 1 0 C1.144375 1.134375 1.28875 2.26875 1.4375 3.4375 C1.61171478 6.80777201 1.61171478 6.80777201 3 8 C3.09893901 9.41781465 3.13079469 10.8404576 3.1328125 12.26171875 C3.13410156 13.13376953 3.13539063 14.00582031 3.13671875 14.90429688 C3.13285156 15.82275391 3.12898437 16.74121094 3.125 17.6875 C3.12886719 18.58662109 3.13273438 19.48574219 3.13671875 20.41210938 C3.12990651 25.05465229 2.95414835 29.4337186 2 34 C2.66 34 3.32 34 4 34 C3.67 39.28 3.34 44.56 3 50 C2.67 50 2.34 50 2 50 C0.38396099 33.29161791 -0.28063443 16.78409776 0 0 Z " fill="#DDE1EB" transform="translate(226,812)"/>
<path d="M0 0 C3.125 0.375 3.125 0.375 6 1 C6.06058594 1.62648438 6.12117188 2.25296875 6.18359375 2.8984375 C6.26738281 3.71570312 6.35117187 4.53296875 6.4375 5.375 C6.55931641 6.59316406 6.55931641 6.59316406 6.68359375 7.8359375 C6.89090114 10.04272805 6.89090114 10.04272805 8 12 C7.67 12.66 7.34 13.32 7 14 C6.34 13.67 5.68 13.34 5 13 C4.01 13 3.02 13 2 13 C-0.65262497 9.53118273 -1.71029209 6.3456187 -2 2 C-1.34 1.34 -0.68 0.68 0 0 Z " fill="#CDD2E1" transform="translate(250,1024)"/>
<path d="M0 0 C3.32875935 3.64578405 5.0219329 8.21084385 6 13 C5.578125 15.28125 5.578125 15.28125 5 17 C2.69 17 0.38 17 -2 17 C-2 15.35 -2 13.7 -2 12 C-1.34 11.67 -0.68 11.34 0 11 C-0.33 10.67 -0.66 10.34 -1 10 C-1.99 10.66 -2.98 11.32 -4 12 C-4.33 10.02 -4.66 8.04 -5 6 C-3 6 -1 6 1 6 C0.67 4.02 0.34 2.04 0 0 Z " fill="#DEE2EC" transform="translate(994,153)"/>
<path d="M0 0 C0.33 0 0.66 0 1 0 C1.08356993 7.99419364 0.86206958 15.91394446 0.34375 23.890625 C0.27716187 24.96125183 0.21057373 26.03187866 0.14196777 27.13494873 C-0.06854171 30.50686175 -0.28417661 33.87842337 -0.5 37.25 C-0.64487249 39.55596817 -0.78940675 41.86195762 -0.93359375 44.16796875 C-1.28515853 49.77889737 -1.64091567 55.38954785 -2 61 C-2.33 61 -2.66 61 -3 61 C-3.06058594 59.79601562 -3.12117187 58.59203125 -3.18359375 57.3515625 C-3.26799732 55.77602923 -3.35264541 54.20050904 -3.4375 52.625 C-3.49647461 51.43390625 -3.49647461 51.43390625 -3.55664062 50.21875 C-3.68893404 45.97398779 -3.68893404 45.97398779 -5 42 C-4.67 41.34 -4.34 40.68 -4 40 C-3.34 40 -2.68 40 -2 40 C-2.02320313 39.1234375 -2.04640625 38.246875 -2.0703125 37.34375 C-2.24850007 24.81970916 -1.17375205 12.4617505 0 0 Z " fill="#DEE3EE" transform="translate(912,812)"/>
<path d="M0 0 C0.66 0.66 1.32 1.32 2 2 C1.34 2 0.68 2 0 2 C0.33 2.99 0.66 3.98 1 5 C0.34 5 -0.32 5 -1 5 C-1 5.66 -1 6.32 -1 7 C0.9254644 8.1490712 0.9254644 8.1490712 3 8 C3 10.97 3 13.94 3 17 C2.01 17.33 1.02 17.66 0 18 C-0.33 17.01 -0.66 16.02 -1 15 C-1.99 14.67 -2.98 14.34 -4 14 C-4 13.34 -4 12.68 -4 12 C-4.99 11.67 -5.98 11.34 -7 11 C-6.21258141 9.53936857 -5.4199095 8.08156827 -4.625 6.625 C-4.18414062 5.81289062 -3.74328125 5.00078125 -3.2890625 4.1640625 C-2 2 -2 2 0 0 Z " fill="#DFE2EC" transform="translate(405,71)"/>
<path d="M0 0 C0.66 0 1.32 0 2 0 C2 0.66 2 1.32 2 2 C2.66 2 3.32 2 4 2 C3.649375 2.9075 3.29875 3.815 2.9375 4.75 C2.03531221 7.87758436 1.86618493 9.05208081 3 12 C2.46375 12.12375 1.9275 12.2475 1.375 12.375 C-1.4638286 13.12206016 -4.22223202 14.05303364 -7 15 C-5.87204037 10.89100419 -4.66489182 6.92438786 -3 3 C-2.34 3 -1.68 3 -1 3 C-0.67 2.01 -0.34 1.02 0 0 Z " fill="#DADEEA" transform="translate(398,84)"/>
<path d="M0 0 C0.33 0 0.66 0 1 0 C0.90463288 4.40704631 0.79820508 8.81366344 0.68261719 13.22021484 C0.64493145 14.71135636 0.60998848 16.20257037 0.578125 17.69384766 C0.35011971 28.24621741 -0.49504716 38.55198428 -2 49 C-2.495 47.515 -2.495 47.515 -3 46 C-3.66 46 -4.32 46 -5 46 C-4.125 38.125 -4.125 38.125 -3 37 C-1.75096958 29.23948012 -1.65044885 21.42347857 -1.39453125 13.58007812 C-1.33845703 12.03416992 -1.33845703 12.03416992 -1.28125 10.45703125 C-1.23581055 9.0644812 -1.23581055 9.0644812 -1.18945312 7.64379883 C-1.00160793 5.02243843 -0.57257388 2.56238404 0 0 Z " fill="#DEE1EC" transform="translate(904,938)"/>
<path d="M0 0 C0.66 0 1.32 0 2 0 C1.73558098 4.7649309 1.46896067 9.52973211 1.20043945 14.29443359 C1.10968851 15.90996092 1.01950353 17.52552015 0.92993164 19.14111328 C0.41395676 28.44019137 -0.15162856 37.72386325 -1 47 C-3.25998888 42.98690468 -3.07482909 39.73135596 -2.6875 35.25 C-2.63916016 34.57195313 -2.59082031 33.89390625 -2.54101562 33.1953125 C-2.28492467 29.78508866 -1.92182531 26.42971841 -1.45703125 23.0390625 C-0.89628236 18.72251391 -0.92376195 14.4705689 -1 10.125 C-1.13363487 2.26726974 -1.13363487 2.26726974 0 0 Z " fill="#E1E5EF" transform="translate(915,758)"/>
<path d="M0 0 C0.66 0 1.32 0 2 0 C2.77521671 2.74895593 3.12278847 5.18115069 3.11352539 8.03417969 C3.11344986 8.81468689 3.11337433 9.59519409 3.11329651 10.39935303 C3.10813522 11.23178528 3.10297394 12.06421753 3.09765625 12.921875 C3.0962413 13.78186096 3.09482635 14.64184692 3.09336853 15.52789307 C3.08778097 18.26863109 3.07523075 21.00928676 3.0625 23.75 C3.05748339 25.6106759 3.05292077 27.47135309 3.04882812 29.33203125 C3.03781561 33.88805246 3.02055951 38.44401228 3 43 C2.67 43 2.34 43 2 43 C1.97494385 42.38592285 1.9498877 41.7718457 1.92407227 41.13916016 C1.80654736 38.30097366 1.68454474 35.4629956 1.5625 32.625 C1.52318359 31.65949219 1.48386719 30.69398438 1.44335938 29.69921875 C1.20230415 24.17349121 0.79400936 18.70475931 0.20727539 13.20556641 C-0.05436255 10.42154151 -0.09833388 7.67004287 -0.0625 4.875 C-0.05347656 3.94429688 -0.04445312 3.01359375 -0.03515625 2.0546875 C-0.02355469 1.37664062 -0.01195312 0.69859375 0 0 Z " fill="#E0E2ED" transform="translate(198,390)"/>
<path d="M0 0 C6.75 -0.125 6.75 -0.125 9 1 C9 1.66 9 2.32 9 3 C10.65 2.34 12.3 1.68 14 1 C14.33 1.66 14.66 2.32 15 3 C12.60612843 3.67449966 10.21030779 4.33976641 7.8125 5 C7.13896484 5.19078125 6.46542969 5.3815625 5.77148438 5.578125 C2.09444844 6.5825836 -1.1850182 7.23704741 -5 7 C-4 5 -4 5 -1 3 C-0.67 2.01 -0.34 1.02 0 0 Z " fill="#DDE0EA" transform="translate(810,1081)"/>
<path d="M0 0 C0.66 0 1.32 0 2 0 C2.05401695 2.91691525 2.09368066 5.83282724 2.125 8.75 C2.15013672 9.9875 2.15013672 9.9875 2.17578125 11.25 C2.18222656 12.04921875 2.18867187 12.8484375 2.1953125 13.671875 C2.20578613 14.4050293 2.21625977 15.13818359 2.22705078 15.89355469 C1.96777544 18.29896076 1.19225925 19.91251494 0 22 C-0.33 20.35 -0.66 18.7 -1 17 C-1.33 17 -1.66 17 -2 17 C-2.11116338 11.55299453 -2.00581962 6.36437132 -1 1 C-0.67 0.67 -0.34 0.34 0 0 Z " fill="#F4F6FD" transform="translate(914,816)"/>
<path d="M0 0 C0.33 0 0.66 0 1 0 C1.14268634 7.95575409 0.71791325 15.76620042 0 23.6875 C-0.09539063 24.78255859 -0.19078125 25.87761719 -0.2890625 27.00585938 C-0.52182365 29.67097457 -0.7588633 32.33563186 -1 35 C-1.33 35 -1.66 35 -2 35 C-1.98952637 34.37955811 -1.97905273 33.75911621 -1.96826172 33.11987305 C-1.92669114 30.30912323 -1.90067067 27.4984381 -1.875 24.6875 C-1.85824219 23.71103516 -1.84148438 22.73457031 -1.82421875 21.72851562 C-1.81777344 20.79072266 -1.81132813 19.85292969 -1.8046875 18.88671875 C-1.79421387 18.02264404 -1.78374023 17.15856934 -1.77294922 16.26831055 C-1.84909832 13.71819279 -1.84909832 13.71819279 -4 11 C-3.125 8.3125 -3.125 8.3125 -2 6 C-1.67 6 -1.34 6 -1 6 C-0.67 4.02 -0.34 2.04 0 0 Z " fill="#DFE3ED" transform="translate(927,577)"/>
<path d="M0 0 C0.33 0 0.66 0 1 0 C1.20032453 3.60357025 1.38282186 7.20784601 1.5625 10.8125 C1.61857422 11.81732422 1.67464844 12.82214844 1.73242188 13.85742188 C2.06100134 20.66996944 1.80176585 27.22721044 1 34 C0.67 34 0.34 34 0 34 C-0.71368464 26.07300272 -1.10577771 18.20642518 -1.125 10.25 C-1.12951172 9.46383301 -1.13402344 8.67766602 -1.13867188 7.86767578 C-1.1238859 2.24777179 -1.1238859 2.24777179 0 0 Z " fill="#DFE3ED" transform="translate(223,749)"/>
<path d="M0 0 C1.485 0.99 1.485 0.99 3 2 C3.51171875 5.2578125 3.51171875 5.2578125 3.6875 9.125 C3.75324219 10.40632812 3.81898438 11.68765625 3.88671875 13.0078125 C3.92410156 13.99523437 3.96148437 14.98265625 4 16 C3.67 16 3.34 16 3 16 C2.67 18.97 2.34 21.94 2 25 C1.67 25 1.34 25 1 25 C-0.10941367 19.67132017 -0.11548069 14.53718145 -0.0625 9.125 C-0.05798828 8.24585938 -0.05347656 7.36671875 -0.04882812 6.4609375 C-0.03712337 4.30726197 -0.01919069 2.15362183 0 0 Z " fill="#F2F5FB" transform="translate(205,542)"/>
<path d="M0 0 C4.69056641 0.5863208 9.08968731 2.35048907 13 5 C13.33 5.99 13.66 6.98 14 8 C11.36 8.33 8.72 8.66 6 9 C6.66 8.67 7.32 8.34 8 8 C7.67 7.01 7.34 6.02 7 5 C5.68 5 4.36 5 3 5 C3 4.34 3 3.68 3 3 C2.01 3.33 1.02 3.66 0 4 C-0.33 3.34 -0.66 2.68 -1 2 C-0.67 1.34 -0.34 0.68 0 0 Z " fill="#CFD4DF" transform="translate(714,60)"/>
<path d="M0 0 C0.33 0 0.66 0 1 0 C1.05379226 2.95857409 1.09357093 5.91617721 1.125 8.875 C1.14175781 9.71675781 1.15851562 10.55851562 1.17578125 11.42578125 C1.18222656 12.23144531 1.18867187 13.03710938 1.1953125 13.8671875 C1.20578613 14.61081543 1.21625977 15.35444336 1.22705078 16.12060547 C1 18 1 18 -1 20 C-1.33 19.01 -1.66 18.02 -2 17 C-2.33 19.31 -2.66 21.62 -3 24 C-3.33 24 -3.66 24 -4 24 C-4.08266818 19.20524584 -4.11816115 14.69627682 -3 10 C-2.34 9.34 -1.68 8.68 -1 8 C-0.54188325 6.02764667 -0.54188325 6.02764667 -0.375 3.875 C-0.25125 2.59625 -0.1275 1.3175 0 0 Z " fill="#EAF0F8" transform="translate(946,330)"/>
<path d="M0 0 C1.98 0 3.96 0 6 0 C6.16677223 8.04212755 5.6466598 15.98603754 5 24 C4.67 24 4.34 24 4 24 C4 22.02 4 20.04 4 18 C3.34 17.67 2.68 17.34 2 17 C2.33 16.67 2.66 16.34 3 16 C3.23075082 14.65252916 3.41153063 13.29622435 3.5625 11.9375 C3.7790625 9.9884375 3.7790625 9.9884375 4 8 C3.01 7.67 2.02 7.34 1 7 C1.99 7 2.98 7 4 7 C4 5.02 4 3.04 4 1 C2.68 0.67 1.36 0.34 0 0 Z " fill="#DDE1EC" transform="translate(939,316)"/>
<path d="M0 0 C3.08089673 2.77280706 4.68775452 5.06326356 6 9 C5.67 9.33 5.34 9.66 5 10 C4.95919217 11.99958364 4.95745644 14.00045254 5 16 C3.68 15.67 2.36 15.34 1 15 C1.020625 13.824375 1.04125 12.64875 1.0625 11.4375 C1.06947261 7.52586533 0.64250343 3.85502056 0 0 Z " fill="#DFE4EC" transform="translate(734,73)"/>
<path d="M0 0 C-1.15234375 1.4921875 -1.15234375 1.4921875 -3 3 C-5.62890625 3.2578125 -5.62890625 3.2578125 -8.5625 3.125 C-12.43043249 2.84738725 -12.43043249 2.84738725 -16 4 C-17.66619446 4.0396713 -19.33391013 4.04384447 -21 4 C-21 3.34 -21 2.68 -21 2 C-13.94887561 -0.21211746 -7.35342179 -0.20177072 0 0 Z " fill="#DFE3EC" transform="translate(455,50)"/>
<path d="M0 0 C0.33 0 0.66 0 1 0 C1.14525497 8.05358138 0.71413279 15.97875848 0 24 C-1.89213369 21.61426621 -3.02391783 19.92824652 -4 17 C-3.34 17 -2.68 17 -2 17 C-2 16.01 -2 15.02 -2 14 C-2.66 13.67 -3.32 13.34 -4 13 C-3.01 13 -2.02 13 -1 13 C-0.67 8.71 -0.34 4.42 0 0 Z " fill="#E2E5EF" transform="translate(924,630)"/>
<path d="M0 0 C0.33 0 0.66 0 1 0 C1.04898438 0.83144531 1.09796875 1.66289063 1.1484375 2.51953125 C1.22320312 3.60621094 1.29796875 4.69289063 1.375 5.8125 C1.44460937 6.89144531 1.51421875 7.97039063 1.5859375 9.08203125 C1.81195733 12.18626186 1.81195733 12.18626186 4 15 C4.625 17.1875 4.625 17.1875 5 19 C4.34 19.33 3.68 19.66 3 20 C2.59270772 22.32156597 2.25561323 24.6568787 2 27 C1.67 27 1.34 27 1 27 C0.24258075 17.97859571 -0.13534286 9.05293337 0 0 Z " fill="#DDE1ED" transform="translate(213,617)"/>
<path d="M0 0 C0.66 0 1.32 0 2 0 C2 0.66 2 1.32 2 2 C2.66 2 3.32 2 4 2 C3.67 2.66 3.34 3.32 3 4 C2.01 4 1.02 4 0 4 C-0.66 5.65 -1.32 7.3 -2 9 C-2.66 9 -3.32 9 -4 9 C-4.33 10.98 -4.66 12.96 -5 15 C-5.66 15 -6.32 15 -7 15 C-5.87204037 10.89100419 -4.66489182 6.92438786 -3 3 C-2.34 3 -1.68 3 -1 3 C-0.67 2.01 -0.34 1.02 0 0 Z " fill="#E2E5ED" transform="translate(398,84)"/>
<path d="M0 0 C0.33 0 0.66 0 1 0 C1.09945415 6.11090483 1.0712828 11.97403427 0 18 C-3.13107836 14.61416198 -3.33550778 12.28890538 -3.1875 7.75 C-3.14689453 6.13351562 -3.14689453 6.13351562 -3.10546875 4.484375 C-3.07066406 3.66453125 -3.03585937 2.8446875 -3 2 C-2.67 2 -2.34 2 -2 2 C-2 4.31 -2 6.62 -2 9 C-1.34 9 -0.68 9 0 9 C0 6.03 0 3.06 0 0 Z " fill="#EEF3FB" transform="translate(921,724)"/>
<path d="M0 0 C0.33 0.99 0.66 1.98 1 3 C1.66 3 2.32 3 3 3 C4.35439668 5.70879335 4.06501451 8.00933268 4 11 C3.34 11 2.68 11 2 11 C1.67 12.32 1.34 13.64 1 15 C-0.03590199 9.94997778 -0.10251672 5.12583611 0 0 Z " fill="#EDF2FD" transform="translate(198,445)"/>
<path d="M0 0 C0.33 0 0.66 0 1 0 C0.67 6.93 0.34 13.86 0 21 C-2.36543381 17.45184929 -2.26923313 15.82743868 -2.25 11.625 C-2.25515625 10.50351562 -2.2603125 9.38203125 -2.265625 8.2265625 C-2.00575269 5.06987823 -1.34320698 2.84631955 0 0 Z " fill="#E0E4EE" transform="translate(932,502)"/>
<path d="M0 0 C0.66 0 1.32 0 2 0 C2.95619733 3.99795892 3.1039592 7.70803922 3.0625 11.8125 C3.05347656 12.97394531 3.04445313 14.13539063 3.03515625 15.33203125 C3.02355469 16.21246094 3.01195312 17.09289062 3 18 C2.67 18 2.34 18 2 18 C1.67 15.03 1.34 12.06 1 9 C0.67 9 0.34 9 0 9 C0 6.03 0 3.06 0 0 Z " fill="#EFF2F8" transform="translate(925,622)"/>
<path d="M0 0 C2.66666667 2.66666667 5.33333333 5.33333333 8 8 C7 10 7 10 6 11 C5.34 11 4.68 11 4 11 C3.67 9.35 3.34 7.7 3 6 C2.01 5.67 1.02 5.34 0 5 C-0.33 4.01 -0.66 3.02 -1 2 C-0.67 1.34 -0.34 0.68 0 0 Z " fill="#DAE0E9" transform="translate(984,139)"/>
<path d="M0 0 C0.66 0 1.32 0 2 0 C2 4.29 2 8.58 2 13 C1.34 12.67 0.68 12.34 0 12 C-0.73075648 9.6859378 -1.40138258 7.35171131 -2 5 C-1.34 5 -0.68 5 0 5 C0 3.35 0 1.7 0 0 Z " fill="#DDE1EC" transform="translate(899,987)"/>
<path d="M0 0 C3.56007358 2.37338238 3.85110773 3.66190568 5.1875 7.625 C5.53167969 8.62789062 5.87585938 9.63078125 6.23046875 10.6640625 C6.48441406 11.43492188 6.73835937 12.20578125 7 13 C6.01 13 5.02 13 4 13 C3.51891725 11.58398286 3.04021859 10.16715563 2.5625 8.75 C2.29566406 7.96109375 2.02882813 7.1721875 1.75390625 6.359375 C1.08045292 4.25178012 0.50849405 2.15246027 0 0 Z " fill="#E4E8F1" transform="translate(740,83)"/>
<path d="M0 0 C3 1 3 1 4 3 C3.01 3.66 2.02 4.32 1 5 C0.34 5.99 -0.32 6.98 -1 8 C-1.33 6.35 -1.66 4.7 -2 3 C-1.34 3 -0.68 3 0 3 C0 2.01 0 1.02 0 0 Z " fill="#CCD4E0" transform="translate(160,133)"/>
<path d="M0 0 C0 0.66 0 1.32 0 2 C-4.1196377 3.29243536 -7.66831683 4.26252625 -12 4 C-12 3.34 -12 2.68 -12 2 C-10.7625 1.67 -9.525 1.34 -8.25 1 C-7.55390625 0.814375 -6.8578125 0.62875 -6.140625 0.4375 C-4 0 -4 0 0 0 Z " fill="#E8EBF3" transform="translate(446,50)"/>
<path d="M0 0 C0.66 0 1.32 0 2 0 C1.67 3.96 1.34 7.92 1 12 C0.67 12 0.34 12 0 12 C-0.19477739 10.37585622 -0.38059458 8.75063577 -0.5625 7.125 C-0.66691406 6.22007812 -0.77132812 5.31515625 -0.87890625 4.3828125 C-1 2 -1 2 0 0 Z " fill="#E0E2EE" transform="translate(915,758)"/>
<path d="M0 0 C1.64826111 2.96687001 2.44271087 5.65626525 3 9 C1.68 8.67 0.36 8.34 -1 8 C-0.67 5.36 -0.34 2.72 0 0 Z " fill="#EDF2F8" transform="translate(897,1008)"/>
<path d="" fill="#FFFFFF" transform="translate(0,0)"/>
</svg>
